<svg width="393" height="405" viewBox="0 0 393 405" fill="none" xmlns="http://www.w3.org/2000/svg">
<g clip-path="url(#clip0_225_5368)">
<rect width="393" height="405" fill="#002661"/>
<rect x="-84.268" y="259.169" width="268.688" height="588.164" rx="134.344" transform="rotate(-61.4854 -84.268 259.169)" stroke="white" stroke-width="1.63834"/>
<rect x="-107.924" y="264.959" width="303.093" height="622.57" rx="151.547" transform="rotate(-61.4854 -107.924 264.959)" stroke="white" stroke-width="1.63834"/>
<rect x="-130.147" y="271.536" width="335.86" height="655.336" rx="167.93" transform="rotate(-61.4854 -130.147 271.536)" stroke="white" stroke-width="1.63834"/>
<rect x="-267.889" y="312.301" width="537.376" height="856.852" rx="268.688" transform="rotate(-61.4854 -267.889 312.301)" stroke="white" stroke-width="1.63834"/>
<rect x="-153.799" y="277.328" width="368.627" height="689.742" rx="184.313" transform="rotate(-61.4854 -153.799 277.328)" stroke="white" stroke-width="1.63834"/>
<rect x="-244.892" y="304.287" width="502.971" height="824.086" rx="251.485" transform="rotate(-61.4854 -244.892 304.287)" stroke="white" stroke-width="1.63834"/>
<g clip-path="url(#clip1_225_5368)">
<rect x="-176.023" y="283.903" width="401.394" height="722.508" rx="200.697" transform="rotate(-61.4854 -176.023 283.903)" stroke="white" stroke-width="1.63834"/>
<rect x="-199.02" y="291.917" width="435.799" height="755.275" rx="217.899" transform="rotate(-61.4854 -199.02 291.917)" stroke="white" stroke-width="1.63834"/>
</g>
<rect x="-221.232" y="298.492" width="470.204" height="789.68" rx="235.102" transform="rotate(-61.4854 -221.232 298.492)" stroke="white" stroke-width="1.63834"/>
</g>
<defs>
<clipPath id="clip0_225_5368">
<rect width="393" height="405" fill="white"/>
</clipPath>
<clipPath id="clip1_225_5368">
<rect x="-222.343" y="298.82" width="471.842" height="791.319" rx="235.921" transform="rotate(-61.4854 -222.343 298.82)" fill="white"/>
</clipPath>
</defs>
</svg>
